<svg width="40" height="40" viewBox="0 0 40 40" fill="none" xmlns="http://www.w3.org/2000/svg">
<path fill-rule="evenodd" clip-rule="evenodd" d="M16.6667 28.3333C16.6667 30.1667 15.1667 31.6667 13.3333 31.6667C11.5 31.6667 10 30.1667 10 28.3333V11.6667C10 9.83332 11.5 8.33332 13.3333 8.33332C15.1667 8.33332 16.6667 9.83332 16.6667 11.6667V28.3333ZM23.3333 28.3333V11.6667C23.3333 9.83332 24.8333 8.33332 26.6667 8.33332C28.5 8.33332 30 9.83332 30 11.6667V28.3333C30 30.1667 28.5 31.6667 26.6667 31.6667C24.8333 31.6667 23.3333 30.1667 23.3333 28.3333Z" fill="url(#paint0_linear)"/>
<defs>
<linearGradient id="paint0_linear" x1="20" y1="8.33332" x2="20" y2="31.6667" gradientUnits="userSpaceOnUse">
<stop stop-color="#1AD27A"/>
<stop offset="1" stop-color="#70FF6D"/>
</linearGradient>
</defs>
</svg>
